<?xml version="1.0" encoding="utf-8"?>
<!-- Generator: Adobe Illustrator 17.1.0, SVG Export Plug-In . SVG Version: 6.00 Build 0)  -->
<!DOCTYPE svg PUBLIC "-//W3C//DTD SVG 1.1//EN" "http://www.w3.org/Graphics/SVG/1.1/DTD/svg11.dtd">
<svg version="1.1" id="Слой_1" xmlns="http://www.w3.org/2000/svg" xmlns:xlink="http://www.w3.org/1999/xlink" x="0px" y="0px"
	 viewBox="0 0 660 660" enable-background="new 0 0 660 660" xml:space="preserve">
<g>
	<g transform="translate(0.000000,660.000000) scale(0.100000,-0.100000)">
		<path d="M6553,5784c-3,14-7,26-8,26c-2,0-34-13-71-29c-205-85-712-232-1001-290c-83-16-124-19-210-15c-181,11-520-22-753-71
			c-370-78-730-245-977-454c-40-34-81-61-92-61c-51,0-97-74-88-140l5-40h-109l7,34c12,67-38,146-93,146c-10,0-47,25-83,56
			c-383,329-989,526-1615,527c-93,0-183,0-200-1c-118-6-917,214-1144,314c-64,29-58,28-66,4c-19-60,44-155,145-220
			c39-25,50-38,50-59c0-38,52-123,100-164c23-20,66-48,95-63c40-22,55-35,59-56c7-38,75-109,133-140c26-15,81-36,121-48
			c39-12,72-26,72-31c0-21,65-79,112-99c62-26,180-49,259-50c46,0,59-4,79-25c31-33,135-65,213-66c47-1,76-8,117-29
			c65-33,114-47,190-53c30-3,80-14,110-25c30-11,82-23,115-27c33-4,78-15,100-26c22-10,67-21,100-25c33-4,74-16,92-27
			c19-11,59-21,95-24c35-2,82-13,105-24c45-21,133-28,193-14c43,9,104,39,147,71c18,13,46,24,63,24h32l-50-56
			c-93-104-142-231-142-369c0-238,150-443,380-521c40-14,84-19,165-19c96,0,120,4,185,28c311,114,449,473,294,768
			c-20,37-59,91-86,119l-51,50h35c21,0,47-10,69-26c77-59,188-88,278-73c29,4,61,15,70,22c9,8,46,17,83,20c38,2,86,14,111,26
			c24,11,53,21,66,21c32,0,112,21,136,36c11,6,48,15,82,18c34,4,93,17,130,30c37,12,88,23,113,25c64,3,117,18,175,50
			c39,21,65,28,115,29c84,2,166,26,212,63c30,24,47,29,90,29c166,1,330,64,358,137c6,15,26,26,67,38c136,39,252,123,268,193
			c4,20,19,35,52,52c110,58,187,145,200,225c4,26,16,41,59,70C6517,5645,6565,5718,6553,5784z M5184,5369c-26-29-98-64-163-79
			c-57-13-221-15-286-2c-35,7-24,10,80,20c126,14,263,41,330,66C5200,5394,5206,5393,5184,5369z M4108,5037c-52,28-57,37-30,52
			c24,14,27,14,80-13c70-35,117-48,217-61l90-12l-40-11C4337,4966,4203,4985,4108,5037z M4245,4934l-32-17c-66-35-187-26-288,23
			l-48,23l29,24c17,13,35,20,44,17c8-4,44-18,80-31c35-13,98-28,140-32L4245,4934z M4310,5112l-85,41l40,18c22,10,42,17,45,16
			c3-1,28-14,55-29c82-43,160-61,264-61c92,0,94,0,71-17C4619,5019,4477,5031,4310,5112z M4535,5195c-91,34-94,37-60,51
			c17,7,32,13,34,14c2,0,36-12,75-26c92-34,250-43,344-21c61,14,62,14,46-4c-30-33-120-60-203-60C4684,5149,4628,5160,4535,5195z
			 M105,5711c-26,49-22,50,39,8c198-133,744-300,1148-351c89-11,101-15,129-44l31-32l-94,5C811,5322,201,5524,105,5711z M2513,5043
			c-103-58-264-81-338-49c-29,12-28,13,40,20c91,9,178,32,234,61c25,13,47,24,48,25c1,0,14-5,28-12C2558,5073,2557,5068,2513,5043z
			 M2590,4977c41,16,80,27,85,25c6-3,21-12,34-21c23-15,23-15-32-42c-99-51-244-58-302-15c-15,11-7,14,61,18
			C2489,4946,2539,4957,2590,4977z M2323,5123c-32-17-87-41-123-54c-111-39-274-28-304,20c-4,5,35,9,91,10c108,0,198,22,268,65
			c40,25,56,26,103,2C2381,5154,2380,5153,2323,5123z M2119,5213c-168-74-318-86-431-35c-48,22-97,58-65,48c109-34,282-31,392,7
			c66,22,101,24,134,7C2159,5235,2150,5227,2119,5213z M1880,5289c-19-5-84-9-145-9c-155-1-255,28-311,91c-19,22-19,22,1,15
			c11-4,56-18,100-31c44-12,121-28,170-34c50-6,104-13,120-15c17-3,46-5,65-6l35-2L1880,5289z M296,5478c-7,21-4,20,49-13
			c31-20,85-49,121-65c229-103,552-166,902-177c148-4,205-9,213-19c15-18-7-22-171-29c-169-7-455,9-602,35
			C525,5258,333,5359,296,5478z M549,5213c-13,22-12,22,62-13c82-38,236-76,369-91c128-14,486-6,613,15c71,11,96,12,135,2l47-13
			l-73-17c-250-57-502-81-697-64C773,5051,599,5120,549,5213z M1255,4899c-153,0-220,10-294,42c-50,21-111,72-66,55
			c105-41,320-54,512-30c127,15,314,55,395,84c29,10,54,19,56,19c1,1,14-6,28-16c32-21,28-24-109-68C1582,4921,1443,4898,1255,4899z
			 M1373,4823c-29,10-55,22-57,25c-2,4,62,7,142,7c196,0,395,43,556,119c86,41,79,40,100,17c17-19,17-20-6-35c-56-37-202-97-293-122
			C1684,4799,1458,4794,1373,4823z M1840,4726c-80,0-125,4-148,14c-32,15-30,15,65,16c56,1,128,8,168,19c83,20,232,88,295,134
			c45,33,105,40,105,14c0-17-96-88-165-123C2052,4746,1966,4726,1840,4726z M1980,4678l-35,10l45,1c101,3,286,70,396,145
			c24,16,52,26,74,26l35-1l-39-33c-53-46-133-93-208-124C2177,4673,2040,4661,1980,4678z M2265,4622l-80,3l75,18
			c87,20,174,59,252,112c45,30,59,35,88,30c19-4,39-9,43-12c13-8-79-71-148-103C2405,4630,2353,4619,2265,4622z M2634,4602
			c-54-28-156-45-216-37c-61,9-54,20,17,29c69,8,146,36,215,80c44,28,57,32,72,23c10-7,18-15,18-19C2740,4668,2681,4625,2634,4602z
			 M2310,5255c-211,73-563,148-800,170c-89,9-143,26-60,20c30-3,105-7,165-10c568-29,1119-229,1454-527c30-26,65-48,77-48
			c44,0,87-63,76-112c-6-28-19-22-98,41C2876,4989,2564,5167,2310,5255z M3763.3,4171.1c0-245.3-204.7-450-450-450
			c-0.6,0-1.1,0-1.7,0c-0.6,0-1.1,0-1.7,0c-3.9,0-7.8,0.3-11.7,0.4c-3.1,0.1-6.1,0.1-9.2,0.3c-11.1,0.6-22.2,1.4-33.1,2.8
			c-81.1,7.3-133.1,26.6-209,78.4c-75,50-137,135-167,226c-14.2,45.7-19.7,73.5-19.4,118.9c-0.4,7.7-0.6,15.4-0.6,23.2
			c0,25.4,2.3,50.4,6.5,74.7c2.5,18.8,6.1,34.4,12,51c55.5,185.7,229.7,324.2,431.5,324.2c0.6,0,1.1,0,1.7,0c0.6,0,1.1,0,1.7,0
			C3558.6,4621.1,3763.3,4416.4,3763.3,4171.1z M3563,4850c-180-137-163-126-174-109c-24,36,18,112,64,114c14,1,55,28,95,63
			c351,302,876,486,1487,521c72,5,137,9,145,9c8,1,10-1,5-6c-6-5-75-16-155-26C4425,5343,3994,5177,3563,4850z M4242,4578
			c-20-20-167-15-227,7c-50,17-155,81-155,94c0,3,10,11,23,17c17,8,28,7,52-8c17-10,51-30,77-43c58-31,148-55,202-55
			C4246,4590,4252,4588,4242,4578z M4346,4621c-84-1-176,18-240,51c-57,29-146,89-146,99c0,7,23,13,69,18c8,0,38-15,67-35
			c76-50,167-91,254-113l75-19L4346,4621z M4630,4678c-60-17-197-5-268,24c-75,31-155,78-208,124l-39,33l34,1c22,0,56-14,105-44
			c122-76,263-124,366-127l45-1L4630,4678z M4919,4742c-53-22-194-26-276-9c-120,26-244,84-332,156c-66,54,0,72,75,20
			c143-98,302-151,462-153C4944,4755,4949,4754,4919,4742z M5090,4803c-169-9-351,31-515,114c-94,47-99,52-80,73c15,16,21,15,108-21
			c51-21,131-49,178-62c132-39,284-59,408-55c60,1,107,0,105-4C5282,4830,5184,4808,5090,4803z M5721,4986c-23-27-87-56-160-72
			c-67-14-320-20-390-9c-170,28-285,57-405,102l-69,26l23,19c13,11,30,16,39,13c9-4,43-15,76-25c96-30,300-68,435-81
			c177-17,339-3,445,37C5733,5003,5734,5002,5721,4986z M6044,5192c-30-40-105-87-178-112c-230-76-636-66-1002,26c-27,7-27,7,14,20
			c35,10,60,9,145-4c157-24,580-23,712,2c109,20,225,55,283,85C6063,5232,6070,5228,6044,5192z M6294,5443c-107-173-444-266-964-266
			c-251,0-328,7-307,27c9,9,72,15,217,19c431,13,828,109,1036,251c21,14,40,23,42,21C6321,5492,6310,5469,6294,5443z M6509,5720
			c-25-70-181-173-369-243c-182-68-347-111-573-147c-159-25-407-44-407-31c1,3,16,18,35,32c27,20,55,29,127,38
			c413,55,922,209,1123,340c33,22,63,40,67,40C6516,5750,6514,5737,6509,5720z"/>
	</g>
	<g>
		<g>
			<path fill="#030104" d="M319.8,399.6l-33.6,3.7l-11.6,95.2c3.6-0.3,7.2-1.9,10.1-4.8l129.2-129.2c2.9-2.9,4.5-6.5,4.7-10.1
				L323.5,366L319.8,399.6z"/>
			<path fill="#030104" d="M304.9,279.3l-1.9-0.8L186.2,395.3c-2.9,2.9-4.5,6.5-4.7,10.1l128.4-15.6l12.5-102.6l-0.5-0.2
				C315.7,285.6,309.9,283,304.9,279.3z"/>
			<polygon fill="#030104" points="184,414.8 265.8,496.6 277.5,404.1 			"/>
			<path fill="#030104" d="M353.1,282.1c-6.3,3.5-13.4,5.6-21,5.8l-8,69.5l92.6-11.7L353.1,282.1z"/>
		</g>
	</g>
</g>
<ellipse fill="none" stroke="#000000" stroke-width="6" stroke-miterlimit="10" cx="331" cy="242.9" rx="35.8" ry="36.2"/>
</svg>
