<?xml version="1.0" encoding="utf-8"?>
<!-- Generator: Adobe Illustrator 17.1.0, SVG Export Plug-In . SVG Version: 6.00 Build 0)  -->
<!DOCTYPE svg PUBLIC "-//W3C//DTD SVG 1.1//EN" "http://www.w3.org/Graphics/SVG/1.1/DTD/svg11.dtd">
<svg version="1.1" id="Слой_1" xmlns="http://www.w3.org/2000/svg" xmlns:xlink="http://www.w3.org/1999/xlink" x="0px" y="0px"
	 viewBox="0 0 276 180" enable-background="new 0 0 276 180" xml:space="preserve">
<g>
	<path fill="#0B76B8" d="M120.7,104.7c18.8-24.6,25.6-35.6,32.4-48.8c3.4-6.4,2.6-8.6,0.4-8.6c-2.4,0-4.8,2.6-6.2,4.2l-48,52
		l-30,40.4c-3.4,4.6-8.4,12.2-14.8,12.2c-8.4,0-12.4-15.8-14.6-22l41.8-52.8c21-37.6,17.4-41.6,14-41.6c-1.6,0-4.6,1.6-6.2,2.4
		c-61.6,28.8-52,29.2-62.2,29.2c-3.2,0-5.8-2.6-4.8-7.4c2-10.8,3.6-21.8,5.2-23.6c1.8-2.4,0.6-2,18.4-14.6c1-0.8,3.6-2.8,5-2.8
		c1,0,2.4,0.8,2.4,2c0,1.2-2.8,4.8-10.6,11.6l0.4,0.4l22.6-10.4c2.4-1,30.6-14.4,37.8-14c4.8,0.2,5.6,3,7.6,6.4l4.8,8.4
		c1.4,2.6,2.4,4.6,2.4,7.6c0,6.6-10.2,27.4-12.4,34.8l0.4,0.4l31.8-30.8c7.4-7,24.4-22,32.6-22.2c4.4-0.2,14.6,3.4,14.6,13.8
		c0,14.8-21.6,44.4-29.8,57l0.4,0.4c24.6-21.2,47.6-43,73.8-63.8c2.6-2.2,6.6-6.4,10.2-6.4c5.4,0,13.8,13,13.8,17.2
		c0,4-6.2,11-8.6,14l-31,37.8c-9.2,11.2-23,30.2-23,45.4c0,4,2.2,9.8,7,9.8c5.6,0,21.2-9,48.2-35.2l0.8,7.6
		c-4.8,13.8-47.8,47.8-65,47.8c-13.2,0-17.6-12.6-17.6-24.2c0-24,25.4-54,39.4-72.2l-0.4-0.4c-34,28.8-45,37.8-76.4,77.6
		c-3,3.8-12.6,15.2-17.6,15.2c-7.8,0-10.6-14.4-10.6-20.2c0-5.6,4.8-11.6,8-15.8L120.7,104.7z"/>
</g>
</svg>
