<?xml version="1.0" standalone="no"?>
<!DOCTYPE svg PUBLIC "-//W3C//DTD SVG 20010904//EN"
 "http://www.w3.org/TR/2001/REC-SVG-20010904/DTD/svg10.dtd">
<svg version="1.0" xmlns="http://www.w3.org/2000/svg"
 width="660.000000pt" height="660.000000pt" viewBox="0 0 660.000000 660.000000"
 preserveAspectRatio="xMidYMid meet">
<metadata>
Created by potrace 1.13, written by Peter Selinger 2001-2015
</metadata>
<g transform="translate(0.000000,660.000000) scale(0.100000,-0.100000)"
fill="#000000" stroke="none">
<path d="M55 4720 c-19 -60 44 -155 145 -220 39 -25 50 -38 50 -59 0 -38 52
-123 100 -164 23 -20 66 -48 95 -63 40 -22 55 -35 59 -56 7 -38 75 -109 133
-140 26 -15 81 -36 121 -48 39 -12 72 -26 72 -31 0 -21 65 -79 112 -99 62 -26
180 -49 259 -50 46 0 59 -4 79 -25 31 -33 135 -65 213 -66 47 -1 76 -8 117
-29 65 -33 114 -47 190 -53 30 -3 80 -14 110 -25 30 -11 82 -23 115 -27 33 -4
78 -15 100 -26 22 -10 67 -21 100 -25 33 -4 74 -16 92 -27 19 -11 59 -21 95
-24 35 -2 82 -13 105 -24 45 -21 133 -28 193 -14 43 9 104 39 147 71 18 13 46
24 63 24 l32 0 -50 -56 c-93 -104 -142 -231 -142 -369 0 -238 150 -443 380
-521 40 -14 84 -19 165 -19 96 0 120 4 185 28 311 114 449 473 294 768 -20 37
-59 91 -86 119 l-51 50 35 0 c21 0 47 -10 69 -26 77 -59 188 -88 278 -73 29 4
61 15 70 22 9 8 46 17 83 20 38 2 86 14 111 26 24 11 53 21 66 21 32 0 112 21
136 36 11 6 48 15 82 18 34 4 93 17 130 30 37 12 88 23 113 25 64 3 117 18
175 50 39 21 65 28 115 29 84 2 166 26 212 63 30 24 47 29 90 29 166 1 330 64
358 137 6 15 26 26 67 38 136 39 252 123 268 193 4 20 19 35 52 52 110 58 187
145 200 225 4 26 16 41 59 70 101 70 149 143 137 209 -3 14 -7 26 -8 26 -2 0
-34 -13 -71 -29 -205 -85 -712 -232 -1001 -290 -83 -16 -124 -19 -210 -15
-181 11 -520 -22 -753 -71 -370 -78 -730 -245 -977 -454 -40 -34 -81 -61 -92
-61 -51 0 -97 -74 -88 -140 l5 -40 -54 0 -55 0 7 34 c12 67 -38 146 -93 146
-10 0 -47 25 -83 56 -383 329 -989 526 -1615 527 -93 0 -183 0 -200 -1 -118
-6 -917 214 -1144 314 -64 29 -58 28 -66 4z m89 -71 c198 -133 744 -300 1148
-351 89 -11 101 -15 129 -44 l31 -32 -94 5 c-547 25 -1157 227 -1253 414 -26
49 -22 50 39 8z m6365 1 c-25 -70 -181 -173 -369 -243 -182 -68 -347 -111
-573 -147 -159 -25 -407 -44 -407 -31 1 3 16 18 35 32 27 20 55 29 127 38 413
55 922 209 1123 340 33 22 63 40 67 40 4 1 2 -12 -3 -29z m-6043 -320 c229
-103 552 -166 902 -177 148 -4 205 -9 213 -19 15 -18 -7 -22 -171 -29 -169 -7
-455 9 -602 35 -283 48 -475 149 -512 268 -7 21 -4 20 49 -13 31 -20 85 -49
121 -65z m5828 43 c-107 -173 -444 -266 -964 -266 -251 0 -328 7 -307 27 9 9
72 15 217 19 431 13 828 109 1036 251 21 14 40 23 42 21 3 -3 -8 -26 -24 -52z
m-4679 -8 c568 -29 1119 -229 1454 -527 30 -26 65 -48 77 -48 44 0 87 -63 76
-112 -6 -28 -19 -22 -98 41 -248 200 -560 378 -814 466 -211 73 -563 148 -800
170 -89 9 -143 26 -60 20 30 -3 105 -7 165 -10z m3570 7 c-6 -5 -75 -16 -155
-26 -605 -73 -1036 -239 -1467 -566 -180 -137 -163 -126 -174 -109 -24 36 18
112 64 114 14 1 55 28 95 63 351 302 876 486 1487 521 72 5 137 9 145 9 8 1
10 -1 5 -6z m-3660 -87 c44 -12 121 -28 170 -34 50 -6 104 -13 120 -15 17 -3
46 -5 65 -6 l35 -2 -35 -9 c-19 -5 -84 -9 -145 -9 -155 -1 -255 28 -311 91
-19 22 -19 22 1 15 11 -4 56 -18 100 -31z m3659 14 c-26 -29 -98 -64 -163 -79
-57 -13 -221 -15 -286 -2 -35 7 -24 10 80 20 126 14 263 41 330 66 55 20 61
19 39 -5z m-3035 -129 c10 -5 1 -13 -30 -27 -168 -74 -318 -86 -431 -35 -48
22 -97 58 -65 48 109 -34 282 -31 392 7 66 22 101 24 134 7z m2435 -6 c92 -34
250 -43 344 -21 61 14 62 14 46 -4 -30 -33 -120 -60 -203 -60 -87 0 -143 11
-236 46 -91 34 -94 37 -60 51 17 7 32 13 34 14 2 0 36 -12 75 -26z m-3973 -34
c82 -38 236 -76 369 -91 128 -14 486 -6 613 15 71 11 96 12 135 2 l47 -13 -73
-17 c-250 -57 -502 -81 -697 -64 -232 19 -406 88 -456 181 -13 22 -12 22 62
-13z m5433 -8 c-30 -40 -105 -87 -178 -112 -230 -76 -636 -66 -1002 26 -27 7
-27 7 14 20 35 10 60 9 145 -4 157 -24 580 -23 712 2 109 20 225 55 283 85 45
23 52 19 26 -17z m-3686 -26 c23 -12 22 -13 -35 -43 -32 -17 -87 -41 -123 -54
-111 -39 -274 -28 -304 20 -4 5 35 9 91 10 108 0 198 22 268 65 40 25 56 26
103 2z m2007 -8 c82 -43 160 -61 264 -61 92 0 94 0 71 -17 -81 -61 -223 -49
-390 32 l-85 41 40 18 c22 10 42 17 45 16 3 -1 28 -14 55 -29z m-1840 -70 c33
-15 32 -20 -12 -45 -103 -58 -264 -81 -338 -49 -29 12 -28 13 40 20 91 9 178
32 234 61 25 13 47 24 48 25 1 0 14 -5 28 -12z m1633 -12 c70 -35 117 -48 217
-61 l90 -12 -40 -11 c-88 -26 -222 -7 -317 45 -52 28 -57 37 -30 52 24 14 27
14 80 -13z m-2272 -23 c32 -21 28 -24 -109 -68 -195 -64 -334 -87 -522 -86
-153 0 -220 10 -294 42 -50 21 -111 72 -66 55 105 -41 320 -54 512 -30 127 15
314 55 395 84 29 10 54 19 56 19 1 1 14 -6 28 -16z m2949 -13 c96 -30 300 -68
435 -81 177 -17 339 -3 445 37 18 7 19 6 6 -10 -23 -27 -87 -56 -160 -72 -67
-14 -320 -20 -390 -9 -170 28 -285 57 -405 102 l-69 26 23 19 c13 11 30 16 39
13 9 -4 43 -15 76 -25z m-2721 -49 c17 -19 17 -20 -6 -35 -56 -37 -202 -97
-293 -122 -131 -35 -357 -40 -442 -11 -29 10 -55 22 -57 25 -2 4 62 7 142 7
196 0 395 43 556 119 86 41 79 40 100 17z m595 -10 c23 -15 23 -15 -32 -42
-99 -51 -244 -58 -302 -15 -15 11 -7 14 61 18 53 4 103 15 154 35 41 16 80 27
85 25 6 -3 21 -12 34 -21z m1321 -8 c35 -13 98 -28 140 -32 l75 -7 -32 -17
c-66 -35 -187 -26 -288 23 l-48 23 29 24 c17 13 35 20 44 17 8 -4 44 -18 80
-31z m751 -66 c132 -39 284 -59 408 -55 60 1 107 0 105 -4 -12 -18 -110 -40
-204 -45 -169 -9 -351 31 -515 114 -94 47 -99 52 -80 73 15 16 21 15 108 -21
51 -21 131 -49 178 -62z m-2456 16 c0 -17 -96 -88 -165 -123 -108 -54 -194
-74 -320 -74 -80 0 -125 4 -148 14 -32 15 -30 15 65 16 56 1 128 8 168 19 83
20 232 88 295 134 45 33 105 40 105 14z m2061 -14 c143 -98 302 -151 462 -153
96 -1 101 -2 71 -14 -53 -22 -194 -26 -276 -9 -120 26 -244 84 -332 156 -66
54 0 72 75 20z m-1930 -83 c-53 -46 -133 -93 -208 -124 -71 -29 -208 -41 -268
-24 l-35 10 45 1 c101 3 286 70 396 145 24 16 52 26 74 26 l35 -1 -39 -33z
m1798 -10 c122 -76 263 -124 366 -127 l45 -1 -35 -10 c-60 -17 -197 -5 -268
24 -75 31 -155 78 -208 124 l-39 33 34 1 c22 0 56 -14 105 -44z m-1611 -43
c13 -8 -79 -71 -148 -103 -90 -40 -142 -51 -230 -48 l-80 3 75 18 c87 20 174
59 252 112 45 30 59 35 88 30 19 -4 39 -9 43 -12z m1453 -19 c76 -50 167 -91
254 -113 l75 -19 -79 -1 c-84 -1 -176 18 -240 51 -57 29 -146 89 -146 99 0 7
23 13 69 18 8 0 38 -15 67 -35z m-1356 -76 c0 -10 -59 -53 -106 -76 -54 -28
-156 -45 -216 -37 -61 9 -54 20 17 29 69 8 146 36 215 80 44 28 57 32 72 23
10 -7 18 -15 18 -19z m1272 -33 c58 -31 148 -55 202 -55 32 0 38 -2 28 -12
-20 -20 -167 -15 -227 7 -50 17 -155 81 -155 94 0 3 10 11 23 17 17 8 28 7 52
-8 17 -10 51 -30 77 -43z m-596 -49 c156 -41 278 -165 319 -321 75 -291 -158
-572 -459 -552 -93 6 -147 24 -229 80 -75 50 -137 135 -167 226 -18 58 -22 87
-18 160 4 78 9 99 42 165 97 197 308 296 512 242z"/>
<path d="M3230 3478 c-69 -12 -163 -63 -210 -114 -23 -25 -56 -75 -73 -112
-28 -60 -31 -77 -31 -157 0 -80 3 -97 31 -157 39 -84 97 -147 171 -186 234
-125 513 6 567 267 57 271 -178 508 -455 459z m215 -77 c72 -34 126 -84 163
-154 24 -47 27 -62 27 -152 0 -89 -3 -105 -27 -150 -111 -209 -381 -252 -546
-88 -113 113 -129 287 -41 423 92 143 268 193 424 121z"/>
</g>
</svg>
