<?xml version="1.0" encoding="utf-8"?>
<!-- Generator: Adobe Illustrator 17.1.0, SVG Export Plug-In . SVG Version: 6.00 Build 0)  -->
<!DOCTYPE svg PUBLIC "-//W3C//DTD SVG 1.1//EN" "http://www.w3.org/Graphics/SVG/1.1/DTD/svg11.dtd">
<svg version="1.1" id="Слой_1" xmlns="http://www.w3.org/2000/svg" xmlns:xlink="http://www.w3.org/1999/xlink" x="0px" y="0px"
	 viewBox="0 0 753.5 194.2" enable-background="new 0 0 753.5 194.2" xml:space="preserve">
<g>
	<g transform="translate(0.000000,660.000000) scale(0.100000,-0.100000)">
		<path fill="#1F2977" d="M7533.9,6538.5c-1.4,6.3-3.2,11.7-3.6,11.7c-0.9,0-15.3-5.9-32-13.1c-92.4-38.3-321.1-104.6-451.4-130.8
			c-37.4-7.2-55.9-8.6-94.7-6.8c-81.6,5-234.5-9.9-339.6-32c-166.9-35.2-329.2-110.5-440.6-204.7c-18-15.3-36.5-27.5-41.5-27.5
			c-23,0-43.7-33.4-39.7-63.1l2.3-18h-49.2l3.2,15.3c5.4,30.2-17.1,65.8-41.9,65.8c-4.5,0-21.2,11.3-37.4,25.3
			c-172.7,148.4-446,237.2-728.3,237.7c-41.9,0-82.5,0-90.2-0.5c-53.2-2.7-413.5,96.5-515.9,141.6c-28.9,13.1-26.2,12.6-29.8,1.8
			c-8.6-27.1,19.8-69.9,65.4-99.2c17.6-11.3,22.5-17.1,22.5-26.6c0-17.1,23.5-55.5,45.1-74c10.4-9,29.8-21.6,42.8-28.4
			c18-9.9,24.8-15.8,26.6-25.3c3.2-17.1,33.8-49.2,60-63.1c11.7-6.8,36.5-16.2,54.6-21.6c17.6-5.4,32.5-11.7,32.5-14
			c0-9.5,29.3-35.6,50.5-44.6c28-11.7,81.2-22.1,116.8-22.5c20.7,0,26.6-1.8,35.6-11.3c14-14.9,60.9-29.3,96.1-29.8
			c21.2-0.5,34.3-3.6,52.8-13.1c29.3-14.9,51.4-21.2,85.7-23.9c13.5-1.4,36.1-6.3,49.6-11.3c13.5-5,37-10.4,51.9-12.2
			c14.9-1.8,35.2-6.8,45.1-11.7c9.9-4.5,30.2-9.5,45.1-11.3c14.9-1.8,33.4-7.2,41.5-12.2c8.6-5,26.6-9.5,42.8-10.8
			c15.8-0.9,37-5.9,47.4-10.8c20.3-9.5,60-12.6,87-6.3c19.4,4.1,46.9,17.6,66.3,32c8.1,5.9,20.7,10.8,28.4,10.8h14.4l-22.5-25.3
			c-41.9-46.9-64-104.2-64-166.4c0-107.3,67.6-199.8,171.4-235c18-6.3,37.9-8.6,74.4-8.6c43.3,0,54.1,1.8,83.4,12.6
			c140.3,51.4,202.5,213.3,132.6,346.3c-9,16.7-26.6,41-38.8,53.7l-23,22.5h15.8c9.5,0,21.2-4.5,31.1-11.7
			c34.7-26.6,84.8-39.7,125.4-32.9c13.1,1.8,27.5,6.8,31.6,9.9c4.1,3.6,20.7,7.7,37.4,9c17.1,0.9,38.8,6.3,50.1,11.7
			c10.8,5,23.9,9.5,29.8,9.5c14.4,0,50.5,9.5,61.3,16.2c5,2.7,21.6,6.8,37,8.1c15.3,1.8,41.9,7.7,58.6,13.5
			c16.7,5.4,39.7,10.4,51,11.3c28.9,1.4,52.8,8.1,78.9,22.5c17.6,9.5,29.3,12.6,51.9,13.1c37.9,0.9,74.9,11.7,95.6,28.4
			c13.5,10.8,21.2,13.1,40.6,13.1c74.9,0.5,148.8,28.9,161.4,61.8c2.7,6.8,11.7,11.7,30.2,17.1c61.3,17.6,113.6,55.5,120.9,87
			c1.8,9,8.6,15.8,23.5,23.5c49.6,26.2,84.3,65.4,90.2,101.5c1.8,11.7,7.2,18.5,26.6,31.6
			C7517.6,6475.8,7539.3,6508.7,7533.9,6538.5z M6916.5,6351.3c-11.7-13.1-44.2-28.9-73.5-35.6c-25.7-5.9-99.7-6.8-129-0.9
			c-15.8,3.2-10.8,4.5,36.1,9c56.8,6.3,118.6,18.5,148.8,29.8C6923.7,6362.6,6926.4,6362.1,6916.5,6351.3z M6431.2,6201.6
			c-23.5,12.6-25.7,16.7-13.5,23.5c10.8,6.3,12.2,6.3,36.1-5.9c31.6-15.8,52.8-21.6,97.9-27.5l40.6-5.4l-18-5
			C6534.5,6169.6,6474.1,6178.1,6431.2,6201.6z M6493,6155.1l-14.4-7.7c-29.8-15.8-84.3-11.7-129.9,10.4l-21.6,10.4l13.1,10.8
			c7.7,5.9,15.8,9,19.8,7.7c3.6-1.8,19.8-8.1,36.1-14c15.8-5.9,44.2-12.6,63.1-14.4L6493,6155.1z M6522.3,6235.4l-38.3,18.5l18,8.1
			c9.9,4.5,18.9,7.7,20.3,7.2c1.4-0.5,12.6-6.3,24.8-13.1c37-19.4,72.2-27.5,119.1-27.5c41.5,0,42.4,0,32-7.7
			C6661.7,6193.5,6597.6,6198.9,6522.3,6235.4z M6623.8,6272.8c-41,15.3-42.4,16.7-27.1,23c7.7,3.2,14.4,5.9,15.3,6.3
			c0.9,0,16.2-5.4,33.8-11.7c41.5-15.3,112.7-19.4,155.1-9.5c27.5,6.3,28,6.3,20.7-1.8c-13.5-14.9-54.1-27.1-91.5-27.1
			C6691,6252.1,6665.7,6257.1,6623.8,6272.8z M4626,6505.5c-11.7,22.1-9.9,22.5,17.6,3.6c89.3-60,335.5-135.3,517.7-158.3
			c40.1-5,45.5-6.8,58.2-19.8l14-14.4l-42.4,2.3C4944.4,6330.1,4669.3,6421.2,4626,6505.5z M5711.9,6204.3
			c-46.4-26.2-119.1-36.5-152.4-22.1c-13.1,5.4-12.6,5.9,18,9c41,4.1,80.3,14.4,105.5,27.5c11.3,5.9,21.2,10.8,21.6,11.3
			c0.5,0,6.3-2.3,12.6-5.4C5732.2,6217.8,5731.8,6215.6,5711.9,6204.3z M5746.7,6174.5c18.5,7.2,36.1,12.2,38.3,11.3
			c2.7-1.4,9.5-5.4,15.3-9.5c10.4-6.8,10.4-6.8-14.4-18.9c-44.6-23-110-26.2-136.2-6.8c-6.8,5-3.2,6.3,27.5,8.1
			C5701.1,6160.5,5723.7,6165.5,5746.7,6174.5z M5626.2,6240.4c-14.4-7.7-39.2-18.5-55.5-24.4c-50.1-17.6-123.6-12.6-137.1,9
			c-1.8,2.3,15.8,4.1,41,4.5c48.7,0,89.3,9.9,120.9,29.3c18,11.3,25.3,11.7,46.4,0.9C5652.4,6254.3,5652,6253.9,5626.2,6240.4z
			 M5534.3,6281c-75.8-33.4-143.4-38.8-194.4-15.8c-21.6,9.9-43.7,26.2-29.3,21.6c49.2-15.3,127.2-14,176.8,3.2
			c29.8,9.9,45.5,10.8,60.4,3.2C5552.3,6290.9,5548.2,6287.3,5534.3,6281z M5426.5,6315.2c-8.6-2.3-37.9-4.1-65.4-4.1
			c-69.9-0.5-115,12.6-140.3,41c-8.6,9.9-8.6,9.9,0.5,6.8c5-1.8,25.3-8.1,45.1-14c19.8-5.4,54.6-12.6,76.7-15.3
			c22.5-2.7,46.9-5.9,54.1-6.8c7.7-1.4,20.7-2.3,29.3-2.7l15.8-0.9L5426.5,6315.2z M4712.1,6400.5c-3.2,9.5-1.8,9,22.1-5.9
			c14-9,38.3-22.1,54.6-29.3c103.3-46.5,248.9-74.9,406.8-79.8c66.7-1.8,92.4-4.1,96.1-8.6c6.8-8.1-3.2-9.9-77.1-13.1
			c-76.2-3.2-205.2,4.1-271.5,15.8C4815.4,6301.2,4728.8,6346.8,4712.1,6400.5z M4826.2,6281c-5.9,9.9-5.4,9.9,28-5.9
			c37-17.1,106.4-34.3,166.4-41c57.7-6.3,219.2-2.7,276.4,6.8c32,5,43.3,5.4,60.9,0.9l21.2-5.9l-32.9-7.7
			c-112.7-25.7-226.4-36.5-314.3-28.9C4927.2,6207.9,4848.8,6239,4826.2,6281z M5144.6,6139.3c-69,0-99.2,4.5-132.6,18.9
			c-22.5,9.5-50.1,32.5-29.8,24.8c47.4-18.5,144.3-24.4,230.9-13.5c57.3,6.8,141.6,24.8,178.1,37.9c13.1,4.5,24.4,8.6,25.3,8.6
			c0.5,0.5,6.3-2.7,12.6-7.2c14.4-9.5,12.6-10.8-49.2-30.7C5292.1,6149.3,5229.4,6138.9,5144.6,6139.3z M5197.8,6105.1
			c-13.1,4.5-24.8,9.9-25.7,11.3c-0.9,1.8,28,3.2,64,3.2c88.4,0,178.1,19.4,250.7,53.7c38.8,18.5,35.6,18,45.1,7.7
			c7.7-8.6,7.7-9-2.7-15.8c-25.3-16.7-91.1-43.7-132.1-55C5338.1,6094.3,5236.2,6092,5197.8,6105.1z M5408.4,6061.3
			c-36.1,0-56.4,1.8-66.7,6.3c-14.4,6.8-13.5,6.8,29.3,7.2c25.3,0.5,57.7,3.6,75.8,8.6c37.4,9,104.6,39.7,133,60.4
			c20.3,14.9,47.4,18,47.4,6.3c0-7.7-43.3-39.7-74.4-55.5C5504,6070.4,5465.3,6061.3,5408.4,6061.3z M5471.6,6039.7l-15.8,4.5
			l20.3,0.5c45.5,1.4,129,31.6,178.6,65.4c10.8,7.2,23.5,11.7,33.4,11.7l15.8-0.5l-17.6-14.9c-23.9-20.7-60-41.9-93.8-55.9
			C5560.4,6037.4,5498.6,6032,5471.6,6039.7z M5600.1,6014.4l-36.1,1.4l33.8,8.1c39.2,9,78.5,26.6,113.6,50.5
			c20.3,13.5,26.6,15.8,39.7,13.5c8.6-1.8,17.6-4.1,19.4-5.4c5.9-3.6-35.6-32-66.7-46.4C5663.2,6018,5639.8,6013.1,5600.1,6014.4z
			 M5766.5,6005.4c-24.4-12.6-70.4-20.3-97.4-16.7c-27.5,4.1-24.4,9,7.7,13.1c31.1,3.6,65.8,16.2,97,36.1
			c19.8,12.6,25.7,14.4,32.5,10.4c4.5-3.2,8.1-6.8,8.1-8.6C5814.3,6035.2,5787.7,6015.8,5766.5,6005.4z M5620.4,6299.9
			c-95.2,32.9-253.9,66.7-360.8,76.7c-40.1,4.1-64.5,11.7-27.1,9c13.5-1.4,47.4-3.2,74.4-4.5c256.2-13.1,504.6-103.3,655.7-237.7
			c13.5-11.7,29.3-21.6,34.7-21.6c19.8,0,39.2-28.4,34.3-50.5c-2.7-12.6-8.6-9.9-44.2,18.5
			C5875.6,6179.9,5734.9,6260.2,5620.4,6299.9z M6275.8,5811.1c0-110.6-92.3-202.9-202.9-202.9c-0.3,0-0.5,0-0.8,0s-0.5,0-0.8,0
			c-1.8,0-3.5,0.1-5.3,0.2c-1.4,0-2.8,0-4.1,0.1c-5,0.3-10,0.6-14.9,1.3c-36.6,3.3-60,12-94.3,35.4c-33.8,22.5-61.8,60.9-75.3,101.9
			c-6.4,20.6-8.9,33.1-8.7,53.6c-0.2,3.5-0.3,6.9-0.3,10.5c0,11.5,1,22.7,2.9,33.7c1.1,8.5,2.8,15.5,5.4,23
			c25,83.7,103.6,146.2,194.6,146.2c0.3,0,0.5,0,0.8,0s0.5,0,0.8,0C6183.5,6014,6275.8,5921.7,6275.8,5811.1z M6185.5,6117.3
			c-81.2-61.8-73.5-56.8-78.5-49.2c-10.8,16.2,8.1,50.5,28.9,51.4c6.3,0.5,24.8,12.6,42.8,28.4c158.3,136.2,395,219.2,670.6,235
			c32.5,2.3,61.8,4.1,65.4,4.1c3.6,0.5,4.5-0.5,2.3-2.7c-2.7-2.3-33.8-7.2-69.9-11.7C6574.2,6339.6,6379.8,6264.7,6185.5,6117.3z
			 M6491.7,5994.6c-9-9-75.3-6.8-102.4,3.2c-22.5,7.7-69.9,36.5-69.9,42.4c0,1.4,4.5,5,10.4,7.7c7.7,3.6,12.6,3.2,23.5-3.6
			c7.7-4.5,23-13.5,34.7-19.4c26.2-14,66.7-24.8,91.1-24.8C6493.5,6000,6496.2,5999.1,6491.7,5994.6z M6538.6,6014
			c-37.9-0.5-79.4,8.1-108.2,23c-25.7,13.1-65.8,40.1-65.8,44.6c0,3.2,10.4,5.9,31.1,8.1c3.6,0,17.1-6.8,30.2-15.8
			c34.3-22.5,75.3-41,114.5-51l33.8-8.6L6538.6,6014z M6666.6,6039.7c-27.1-7.7-88.8-2.3-120.9,10.8c-33.8,14-69.9,35.2-93.8,55.9
			l-17.6,14.9l15.3,0.5c9.9,0,25.3-6.3,47.4-19.8c55-34.3,118.6-55.9,165.1-57.3l20.3-0.5L6666.6,6039.7z M6797,6068.5
			c-23.9-9.9-87.5-11.7-124.5-4.1c-54.1,11.7-110,37.9-149.7,70.4c-29.8,24.4,0,32.5,33.8,9c64.5-44.2,136.2-68.1,208.3-69
			C6808.2,6074.4,6810.5,6074,6797,6068.5z M6874.1,6096.1c-76.2-4.1-158.3,14-232.2,51.4c-42.4,21.2-44.6,23.5-36.1,32.9
			c6.8,7.2,9.5,6.8,48.7-9.5c23-9.5,59.1-22.1,80.3-28c59.5-17.6,128.1-26.6,184-24.8c27.1,0.5,48.3,0,47.4-1.8
			C6960.7,6108.2,6916.5,6098.3,6874.1,6096.1z M7158.6,6178.6c-10.4-12.2-39.2-25.3-72.2-32.5c-30.2-6.3-144.3-9-175.9-4.1
			c-76.7,12.6-128.5,25.7-182.6,46l-31.1,11.7l10.4,8.6c5.9,5,13.5,7.2,17.6,5.9c4.1-1.8,19.4-6.8,34.3-11.3
			c43.3-13.5,135.3-30.7,196.2-36.5c79.8-7.7,152.9-1.4,200.7,16.7C7164.1,6186.3,7164.5,6185.8,7158.6,6178.6z M7304.3,6271.5
			c-13.5-18-47.4-39.2-80.3-50.5c-103.7-34.3-286.8-29.8-451.9,11.7c-12.2,3.2-12.2,3.2,6.3,9c15.8,4.5,27.1,4.1,65.4-1.8
			c70.8-10.8,261.6-10.4,321.1,0.9c49.2,9,101.5,24.8,127.6,38.3C7312.9,6289.5,7316,6287.7,7304.3,6271.5z M7417.1,6384.7
			c-48.3-78-200.2-120-434.7-120c-113.2,0-147.9,3.2-138.4,12.2c4.1,4.1,32.5,6.8,97.9,8.6c194.4,5.9,373.4,49.2,467.2,113.2
			c9.5,6.3,18,10.4,18.9,9.5C7429.2,6406.8,7424.3,6396.4,7417.1,6384.7z M7514,6509.6c-11.3-31.6-81.6-78-166.4-109.6
			c-82.1-30.7-156.5-50.1-258.4-66.3c-71.7-11.3-183.5-19.8-183.5-14c0.5,1.4,7.2,8.1,15.8,14.4c12.2,9,24.8,13.1,57.3,17.1
			c186.3,24.8,415.8,94.3,506.4,153.3c14.9,9.9,28.4,18,30.2,18C7517.2,6523.1,7516.3,6517.3,7514,6509.6z"/>
	</g>
	<g>
		<g>
			<path fill="#1F2977" d="M602.1,149.6l-15.2,1.7l-5.2,42.9c1.6-0.1,3.2-0.9,4.6-2.2l58.3-58.3c1.3-1.3,2-2.9,2.1-4.6l-42.9,5.2
				L602.1,149.6z"/>
			<path fill="#1F2977" d="M595.4,95.3l-0.9-0.4l-52.7,52.7c-1.3,1.3-2,2.9-2.1,4.6l57.9-7l5.6-46.3l-0.2-0.1
				C600.2,98.2,597.6,97,595.4,95.3z"/>
			<polygon fill="#1F2977" points="540.8,156.4 577.7,193.3 583,151.6 			"/>
			<path fill="#1F2977" d="M617.1,96.6c-2.8,1.6-6,2.5-9.5,2.6l-3.6,31.3l41.8-5.3L617.1,96.6z"/>
		</g>
	</g>
</g>
<ellipse fill="none" stroke="#1F2977" stroke-width="6" stroke-miterlimit="10" cx="607.1" cy="78.9" rx="16.1" ry="16.3"/>
<g>
	<path fill="#1F2977" d="M134.9,85.6C149,67.2,154.1,58.9,159.2,49c2.5-4.8,1.9-6.4,0.3-6.4c-1.8,0-3.6,2-4.6,3.1l-36,39L96.3,115
		c-2.5,3.4-6.3,9.1-11.1,9.1c-6.3,0-9.3-11.8-10.9-16.5l31.3-39.6c15.7-28.2,13-31.2,10.5-31.2c-1.2,0-3.4,1.2-4.6,1.8
		c-46.2,21.6-39,21.9-46.6,21.9c-2.4,0-4.3-2-3.6-5.5c1.5-8.1,2.7-16.3,3.9-17.7c1.4-1.8,0.5-1.5,13.8-10.9c0.8-0.6,2.7-2.1,3.7-2.1
		c0.8,0,1.8,0.6,1.8,1.5s-2.1,3.6-7.9,8.7l0.3,0.3L93.8,27c1.8-0.8,22.9-10.8,28.3-10.5c3.6,0.1,4.2,2.2,5.7,4.8l3.6,6.3
		c1.1,2,1.8,3.5,1.8,5.7c0,4.9-7.6,20.5-9.3,26.1l0.3,0.3l23.8-23.1c5.5-5.3,18.3-16.5,24.4-16.6c3.3-0.1,10.9,2.5,10.9,10.3
		c0,11.1-16.2,33.3-22.3,42.7l0.3,0.3c18.4-15.9,35.7-32.2,55.3-47.8c1.9-1.6,4.9-4.8,7.6-4.8c4.1,0,10.3,9.7,10.3,12.9
		c0,3-4.6,8.2-6.4,10.5l-23.2,28.3c-6.9,8.4-17.2,22.6-17.2,34c0,3,1.6,7.3,5.2,7.3c4.2,0,15.9-6.8,36.1-26.4l0.6,5.7
		c-3.6,10.3-35.8,35.8-48.7,35.8c-9.9,0-13.2-9.5-13.2-18.1c0-18,19-40.5,29.5-54.1l-0.3-0.3c-25.5,21.6-33.7,28.3-57.3,58.2
		c-2.3,2.8-9.4,11.4-13.2,11.4c-5.8,0-7.9-10.8-7.9-15.1c0-4.2,3.6-8.7,6-11.8L134.9,85.6z"/>
	<path fill="#1F2977" d="M281.6,100c-9.1,10.6-25.6,24.7-40.5,24.7c-10.9,0-16-9.7-16.3-19.6c-0.6-19.6,21.1-39.7,40.6-39.6
		c4.8,0,10.8,1.2,10.8,7.2c0,7.3-7.3,18.4-36.1,27.9l-0.3,3.3c-0.4,5.7,4.5,7.6,9.3,7.6c10.6,0,23.2-10.9,31.2-17.2L281.6,100z
		 M263,75.9c0-1-0.8-2-1.8-1.6c-7.5,1.9-16.2,9.1-20.2,19C254.1,88.8,263.1,78.4,263,75.9z"/>
	<path fill="#1F2977" d="M290,89.8c-5.2,8.3-11.5,12.1-18,18.6l-0.6-6.6c3.9-3.1,7-6.9,9.9-10.9c-3.1-0.3-4-1.5-4-4.6
		c0-10.8,15.3-21.6,18.9-21.6c1.5,0,2.7,1.2,2.7,2.5c0,1.5-0.4,2.9-1,4.2c14.1-1.9,22.3-3.7,23.8-1.9c2.3,2.8,3.3,5.2,3.6,7.9
		c0,4.6-2.8,6.9-6.3,9.7c-4.3,3.8-11.7,11.1-11.7,17.1c0,2.4,2.4,4.2,4.6,4.2c6.5,0,15.9-9.8,20.8-13.5l1,5.5
		c-5.7,6.5-22.9,23.1-31.5,23.1c-6.3,0-10.2-5.8-10.2-11.5c0-10.2,7.8-18.1,13.8-25.3l-0.3-0.3L290,89.8z"/>
	<path fill="#1F2977" d="M348.2,94.2c-3.3,2.4-6,4.7-6,8.8c0,3.5,3.6,8.1,11.4,8.1c11.4,0,24.4-10.5,33.1-17.2l1.8,5.8
		c-9.1,9.8-25.9,24.6-40.2,24.6c-11.5,0-17.1-10.8-17.1-21.9c0-12.6,4.5-17.3,14.3-24.6c6.7-5.1,21.1-13.2,29.5-13.2
		c4.6,0,6.7,2.4,6.7,6.9c0,8.3-11.8,19.8-15.9,19.8c-3.4,0-4.9-3.8-5.1-6.6L348.2,94.2z"/>
	<path fill="#1F2977" d="M428.1,82.5c3.1-2.8,17.8-17.1,21.6-17.1c1.2,0,2.8,0.4,3.5,8.2c0.3,3.6-3.8,7-6.2,9.1
		c-4.8,4.3-15.4,16.2-15.4,22.9c0,2.4,1.4,3.3,3.8,3.3c5.7,0,18.6-10.5,23.1-14.1l0.9,6.5c-7.6,7.3-23.5,24.6-34.6,24.6
		c-5.5,0-8.8-4.6-8.8-9.9c0-4.5,1.6-8.7,3.1-12.6l-0.3-0.3c-5.8,5.1-15.9,18.6-24.1,18.6c-7.3,0-11.4-8.4-11.4-14.8
		c0-14.5,11.2-29.5,20.8-35.8c2.1-1.4,4-1.6,6.6-1.6c2.1,0,9.8-1.4,9.1,3.1c-0.3,2.4-4.3,6.6-6,7.9c-4.7,5.2-5.5,6.6-11.4,10.8
		c-4.7,3.3-8.3,6.6-8.3,12.9c0,0.8,0.1,2.3,1.2,2.3c2.7,0,10.9-4.3,18-10.6L428.1,82.5z"/>
	<path fill="#1F2977" d="M467.7,89.8c-5.3,8.3-11.5,12.1-18,18.6l-0.6-6.6c3.9-3.1,7-6.9,9.9-10.9c-3.1-0.3-4-1.5-4-4.6
		c0-10.8,15.3-21.6,18.9-21.6c1.5,0,2.7,1.2,2.7,2.5c0,1.5-0.5,2.9-1.1,4.2c14.1-1.9,22.3-3.7,23.8-1.9c2.3,2.8,3.3,5.2,3.6,7.9
		c0,4.6-2.8,6.9-6.3,9.7c-4.3,3.8-11.7,11.1-11.7,17.1c0,2.4,2.4,4.2,4.6,4.2c6.5,0,15.9-9.8,20.8-13.5l1,5.5
		c-5.7,6.5-22.9,23.1-31.5,23.1c-6.3,0-10.2-5.8-10.2-11.5c0-10.2,7.8-18.1,13.8-25.3l-0.3-0.3L467.7,89.8z"/>
	<path fill="#1F2977" d="M534,147.3c-1.5,1.7-5.7,7.5-8.1,7.5c-3.1,0-4.5-7.3-4.5-9.9c0-2.4,2.9-7,4.1-9l20.1-33.9l-0.3-0.3
		C533,112,522,120.1,520.2,120c-4.2-0.3-11.4-6.6-11.8-17.7c-0.6-18,25-37,29.2-37.2c2.3,0,6.4,4.8,6.4,6.9
		c0,5.7-16.9,21.3-21.9,25.2c-1.8,2.5-2.7,5.5-2.8,8.7c8-0.9,15.1-7.3,21.4-13.2c15.4-14.2,25-24.6,27.9-25c2.5-0.5,4,5.4,4,7.5
		c0,3.9-4,10-6.2,13.2l-22.2,33l0.3,0.3L578,92.1l1.2,5.5L534,147.3z"/>
</g>
</svg>
