<?xml version="1.0" encoding="utf-8"?>
<!-- Generator: Adobe Illustrator 17.1.0, SVG Export Plug-In . SVG Version: 6.00 Build 0)  -->
<!DOCTYPE svg PUBLIC "-//W3C//DTD SVG 1.1//EN" "http://www.w3.org/Graphics/SVG/1.1/DTD/svg11.dtd">
<svg version="1.1" id="Слой_1" xmlns="http://www.w3.org/2000/svg" xmlns:xlink="http://www.w3.org/1999/xlink" x="0px" y="0px"
	 viewBox="0 184 595.3 397.5" enable-background="new 0 184 595.3 397.5" xml:space="preserve">
<g>
	<g>
		<g transform="translate(0.000000,660.000000) scale(0.100000,-0.100000)">
			<path d="M5910.4,4631c-2.7,12.6-6.3,23.5-7.2,23.5c-1.8,0-30.7-11.7-64-26.2c-184.9-76.7-642.2-209.3-902.8-261.6
				c-74.9-14.4-111.8-17.1-189.4-13.5c-163.3,9.9-469-19.8-679.2-64c-333.7-70.4-658.4-221-881.2-409.5c-36.1-30.7-73.1-55-83-55
				c-46,0-87.5-66.7-79.4-126.3l4.5-36.1h-98.3l6.3,30.7c10.8,60.4-34.3,131.7-83.9,131.7c-9,0-42.4,22.5-74.9,50.5
				c-345.4,296.7-892,474.4-1456.6,475.3c-83.9,0-165.1,0-180.4-0.9c-106.4-5.4-827.1,193-1031.8,283.2
				c-57.7,26.2-52.3,25.3-59.5,3.6c-17.1-54.1,39.7-139.8,130.8-198.4c35.2-22.5,45.1-34.3,45.1-53.2c0-34.3,46.9-110.9,90.2-147.9
				c20.7-18,59.5-43.3,85.7-56.8c36.1-19.8,49.6-31.6,53.2-50.5c6.3-34.3,67.6-98.3,120-126.3c23.5-13.5,73.1-32.5,109.1-43.3
				c35.2-10.8,64.9-23.5,64.9-28c0-18.9,58.6-71.3,101-89.3c55.9-23.5,162.3-44.2,233.6-45.1c41.5,0,53.2-3.6,71.3-22.5
				c28-29.8,121.8-58.6,192.1-59.5c42.4-0.9,68.5-7.2,105.5-26.2c58.6-29.8,102.8-42.4,171.4-47.8c27.1-2.7,72.2-12.6,99.2-22.5
				c27.1-9.9,74-20.7,103.7-24.4c29.8-3.6,70.4-13.5,90.2-23.5c19.8-9,60.4-18.9,90.2-22.5c29.8-3.6,66.7-14.4,83-24.4
				c17.1-9.9,53.2-18.9,85.7-21.6c31.6-1.8,74-11.7,94.7-21.6c40.6-18.9,120-25.3,174.1-12.6c38.8,8.1,93.8,35.2,132.6,64
				c16.2,11.7,41.5,21.6,56.8,21.6h28.9l-45.1-50.5c-83.9-93.8-128.1-208.3-128.1-332.8c0-214.7,135.3-399.6,342.7-469.9
				c36.1-12.6,75.8-17.1,148.8-17.1c86.6,0,108.2,3.6,166.9,25.3c280.5,102.8,405,426.6,265.2,692.7c-18,33.4-53.2,82.1-77.6,107.3
				l-46,45.1h31.6c18.9,0,42.4-9,62.2-23.5c69.4-53.2,169.6-79.4,250.7-65.8c26.2,3.6,55,13.5,63.1,19.8c8.1,7.2,41.5,15.3,74.9,18
				c34.3,1.8,77.6,12.6,100.1,23.5c21.6,9.9,47.8,18.9,59.5,18.9c28.9,0,101,18.9,122.7,32.5c9.9,5.4,43.3,13.5,74,16.2
				c30.7,3.6,83.9,15.3,117.3,27.1c33.4,10.8,79.4,20.7,101.9,22.5c57.7,2.7,105.5,16.2,157.8,45.1c35.2,18.9,58.6,25.3,103.7,26.2
				c75.8,1.8,149.7,23.5,191.2,56.8c27.1,21.6,42.4,26.2,81.2,26.2c149.7,0.9,297.6,57.7,322.9,123.6c5.4,13.5,23.5,23.5,60.4,34.3
				c122.7,35.2,227.3,110.9,241.7,174.1c3.6,18,17.1,31.6,46.9,46.9c99.2,52.3,168.7,130.8,180.4,202.9c3.6,23.5,14.4,37,53.2,63.1
				C5877.9,4505.6,5921.2,4571.4,5910.4,4631z M4675.7,4256.7c-23.5-26.2-88.4-57.7-147-71.3c-51.4-11.7-199.3-13.5-258-1.8
				c-31.6,6.3-21.6,9,72.2,18c113.6,12.6,237.2,37,297.6,59.5C4690.1,4279.2,4695.5,4278.3,4675.7,4256.7z M3705.2,3957.2
				c-46.9,25.3-51.4,33.4-27.1,46.9c21.6,12.6,24.4,12.6,72.2-11.7c63.1-31.6,105.5-43.3,195.7-55l81.2-10.8l-36.1-9.9
				C3911.7,3893.2,3790.9,3910.3,3705.2,3957.2z M3828.7,3864.3l-28.9-15.3c-59.5-31.6-168.7-23.5-259.8,20.7l-43.3,20.7l26.2,21.6
				c15.3,11.7,31.6,18,39.7,15.3c7.2-3.6,39.7-16.2,72.2-28c31.6-11.7,88.4-25.3,126.3-28.9L3828.7,3864.3z M3887.4,4024.9l-76.7,37
				l36.1,16.2c19.8,9,37.9,15.3,40.6,14.4c2.7-0.9,25.3-12.6,49.6-26.2c74-38.8,144.3-55,238.1-55c83,0,84.8,0,64-15.3
				C4166.1,3941,4038,3951.8,3887.4,4024.9z M4090.3,4099.7c-82.1,30.7-84.8,33.4-54.1,46c15.3,6.3,28.9,11.7,30.7,12.6
				c1.8,0,32.5-10.8,67.6-23.5c83-30.7,225.5-38.8,310.3-18.9c55,12.6,55.9,12.6,41.5-3.6c-27.1-29.8-108.2-54.1-183.1-54.1
				C4224.7,4058.2,4174.2,4068.2,4090.3,4099.7z M94.7,4565.1c-23.5,44.2-19.8,45.1,35.2,7.2c178.6-120,671-270.6,1035.4-316.6
				c80.3-9.9,91.1-13.5,116.4-39.7l28-28.9l-84.8,4.5C731.5,4214.3,181.3,4396.5,94.7,4565.1z M2266.6,3962.6
				c-92.9-52.3-238.1-73.1-304.9-44.2c-26.2,10.8-25.3,11.7,36.1,18c82.1,8.1,160.5,28.9,211.1,55c22.5,11.7,42.4,21.6,43.3,22.5
				c0.9,0,12.6-4.5,25.3-10.8C2307.2,3989.7,2306.3,3985.2,2266.6,3962.6z M2336,3903.1c37,14.4,72.2,24.4,76.7,22.5
				c5.4-2.7,18.9-10.8,30.7-18.9c20.7-13.5,20.7-13.5-28.9-37.9c-89.3-46-220.1-52.3-272.4-13.5c-13.5,9.9-6.3,12.6,55,16.2
				C2244.9,3875.1,2290,3885.1,2336,3903.1z M2095.2,4034.8c-28.9-15.3-78.5-37-110.9-48.7c-100.1-35.2-247.1-25.3-274.2,18
				c-3.6,4.5,31.6,8.1,82.1,9c97.4,0,178.6,19.8,241.7,58.6c36.1,22.5,50.5,23.5,92.9,1.8
				C2147.5,4062.7,2146.6,4061.8,2095.2,4034.8z M1911.2,4116c-151.5-66.7-286.8-77.6-388.7-31.6c-43.3,19.8-87.5,52.3-58.6,43.3
				c98.3-30.7,254.3-28,353.6,6.3c59.5,19.8,91.1,21.6,120.9,6.3C1947.3,4135.8,1939.2,4128.6,1911.2,4116z M1695.6,4184.5
				c-17.1-4.5-75.8-8.1-130.8-8.1c-139.8-0.9-230,25.3-280.5,82.1c-17.1,19.8-17.1,19.8,0.9,13.5c9.9-3.6,50.5-16.2,90.2-28
				c39.7-10.8,109.1-25.3,153.3-30.7c45.1-5.4,93.8-11.7,108.2-13.5c15.3-2.7,41.5-4.5,58.6-5.4l31.6-1.8L1695.6,4184.5z M267,4355
				c-6.3,18.9-3.6,18,44.2-11.7c28-18,76.7-44.2,109.1-58.6c206.5-92.9,497.9-149.7,813.5-159.6c133.5-3.6,184.9-8.1,192.1-17.1
				c13.5-16.2-6.3-19.8-154.2-26.2c-152.4-6.3-410.4,8.1-543,31.6C473.5,4156.5,300.3,4247.6,267,4355z M495.2,4116
				c-11.7,19.8-10.8,19.8,55.9-11.7c74-34.3,212.9-68.5,332.8-82.1c115.4-12.6,438.3-5.4,552.9,13.5c64,9.9,86.6,10.8,121.8,1.8
				l42.4-11.7l-65.8-15.3c-225.5-51.4-452.8-73.1-628.7-57.7C697.2,3969.8,540.3,4032.1,495.2,4116z M1131.9,3832.8
				c-138,0-198.4,9-265.2,37.9c-45.1,18.9-100.1,64.9-59.5,49.6c94.7-37,288.6-48.7,461.8-27.1c114.5,13.5,283.2,49.6,356.3,75.8
				c26.2,9,48.7,17.1,50.5,17.1c0.9,0.9,12.6-5.4,25.3-14.4c28.9-18.9,25.3-21.6-98.3-61.3
				C1426.9,3852.6,1301.5,3831.8,1131.9,3832.8z M1238.4,3764.2c-26.2,9-49.6,19.8-51.4,22.5c-1.8,3.6,55.9,6.3,128.1,6.3
				c176.8,0,356.3,38.8,501.5,107.3c77.6,37,71.3,36.1,90.2,15.3c15.3-17.1,15.3-18-5.4-31.6c-50.5-33.4-182.2-87.5-264.3-110
				C1518.9,3742.6,1315,3738,1238.4,3764.2z M1659.6,3676.7c-72.2,0-112.7,3.6-133.5,12.6c-28.9,13.5-27.1,13.5,58.6,14.4
				c50.5,0.9,115.4,7.2,151.5,17.1c74.9,18,209.2,79.4,266.1,120.9c40.6,29.8,94.7,36.1,94.7,12.6c0-15.3-86.6-79.4-148.8-110.9
				C1850.8,3694.8,1773.2,3676.7,1659.6,3676.7z M1785.8,3633.4l-31.6,9l40.6,0.9c91.1,2.7,258,63.1,357.2,130.8
				c21.6,14.4,46.9,23.5,66.7,23.5l31.6-0.9l-35.2-29.8c-47.8-41.5-120-83.9-187.6-111.8C1963.5,3628.9,1840,3618.1,1785.8,3633.4z
				 M2042.9,3582.9l-72.2,2.7l67.6,16.2c78.5,18,156.9,53.2,227.3,101c40.6,27.1,53.2,31.6,79.4,27.1c17.1-3.6,35.2-8.1,38.8-10.8
				c11.7-7.2-71.3-64-133.5-92.9C2169.2,3590.1,2122.3,3580.2,2042.9,3582.9z M2375.7,3564.9c-48.7-25.3-140.7-40.6-194.8-33.4
				c-55,8.1-48.7,18,15.3,26.2c62.2,7.2,131.7,32.5,193.9,72.2c39.7,25.3,51.4,28.9,64.9,20.7c9-6.3,16.2-13.5,16.2-17.1
				C2471.3,3624.4,2418.1,3585.6,2375.7,3564.9z M2083.5,4153.8c-190.3,65.8-507.8,133.5-721.6,153.3c-80.3,8.1-129,23.5-54.1,18
				c27.1-2.7,94.7-6.3,148.8-9c512.3-26.2,1009.3-206.5,1311.4-475.3c27.1-23.5,58.6-43.3,69.4-43.3c39.7,0,78.5-56.8,68.5-101
				c-5.4-25.3-17.1-19.8-88.4,37C2594,3913.9,2312.6,4074.5,2083.5,4153.8z M3394.3,3176.2c0-221.2-184.6-405.9-405.9-405.9
				c-0.5,0-1,0-1.5,0c-0.5,0-1,0-1.5,0c-3.5,0-7,0.3-10.6,0.4c-2.8,0.1-5.5,0.1-8.3,0.3c-10,0.5-20,1.3-29.9,2.5
				c-73.1,6.6-120,24-188.5,70.7c-67.6,45.1-123.6,121.8-150.6,203.8c-12.8,41.2-17.8,66.3-17.5,107.2c-0.4,6.9-0.5,13.9-0.5,20.9
				c0,22.9,2.1,45.5,5.9,67.4c2.3,17,5.5,31,10.8,46c50.1,167.5,207.2,292.4,389.2,292.4c0.5,0,1,0,1.5,0c0.5,0,1,0,1.5,0
				C3209.6,3582.1,3394.3,3397.5,3394.3,3176.2z M3213.6,3788.6c-162.3-123.6-147-113.6-156.9-98.3c-21.6,32.5,16.2,101,57.7,102.8
				c12.6,0.9,49.6,25.3,85.7,56.8c316.6,272.4,790.1,438.3,1341.2,469.9c64.9,4.5,123.6,8.1,130.8,8.1c7.2,0.9,9-0.9,4.5-5.4
				c-5.4-4.5-67.6-14.4-139.8-23.5C3991.1,4233.2,3602.3,4083.5,3213.6,3788.6z M3826,3543.2c-18-18-150.6-13.5-204.7,6.3
				c-45.1,15.3-139.8,73.1-139.8,84.8c0,2.7,9,9.9,20.7,15.3c15.3,7.2,25.3,6.3,46.9-7.2c15.3-9,46-27.1,69.4-38.8
				c52.3-28,133.5-49.6,182.2-49.6C3829.6,3554.1,3835,3552.2,3826,3543.2z M3919.8,3582c-75.8-0.9-158.7,16.2-216.5,46
				c-51.4,26.2-131.7,80.3-131.7,89.3c0,6.3,20.7,11.7,62.2,16.2c7.2,0,34.3-13.5,60.4-31.6c68.5-45.1,150.6-82.1,229.1-101.9
				l67.6-17.1L3919.8,3582z M4176,3633.4c-54.1-15.3-177.7-4.5-241.7,21.6c-67.6,28-139.8,70.4-187.6,111.8l-35.2,29.8l30.7,0.9
				c19.8,0,50.5-12.6,94.7-39.7c110-68.5,237.2-111.8,330.1-114.5l40.6-0.9L4176,3633.4z M4436.6,3691.1
				c-47.8-19.8-175-23.5-248.9-8.1c-108.2,23.5-220.1,75.8-299.4,140.7c-59.5,48.7,0,64.9,67.6,18c129-88.4,272.4-136.2,416.7-138
				C4459.2,3702.9,4463.7,3702,4436.6,3691.1z M4590.9,3746.2c-152.4-8.1-316.6,28-464.5,102.8c-84.8,42.4-89.3,46.9-72.2,65.8
				c13.5,14.4,18.9,13.5,97.4-18.9c46-18.9,118.2-44.2,160.5-55.9c119.1-35.2,256.2-53.2,368-49.6c54.1,0.9,96.5,0,94.7-3.6
				C4764,3770.5,4675.7,3750.7,4590.9,3746.2z M5160,3911.2c-20.7-24.4-78.5-50.5-144.3-64.9c-60.4-12.6-288.6-18-351.8-8.1
				c-153.3,25.3-257.1,51.4-365.3,92l-62.2,23.5l20.7,17.1c11.7,9.9,27.1,14.4,35.2,11.7c8.1-3.6,38.8-13.5,68.5-22.5
				c86.6-27.1,270.6-61.3,392.3-73.1c159.6-15.3,305.8-2.7,401.4,33.4C5170.8,3926.6,5171.7,3925.7,5160,3911.2z M5451.3,4097
				c-27.1-36.1-94.7-78.5-160.5-101c-207.4-68.5-573.6-59.5-903.7,23.5c-24.4,6.3-24.4,6.3,12.6,18c31.6,9,54.1,8.1,130.8-3.6
				c141.6-21.6,523.1-20.7,642.2,1.8c98.3,18,202.9,49.6,255.2,76.7C5468.5,4133.1,5474.8,4129.5,5451.3,4097z M5676.8,4323.4
				c-96.5-156-400.5-239.9-869.5-239.9c-226.4,0-295.8,6.3-276.9,24.4c8.1,8.1,64.9,13.5,195.7,17.1
				c388.7,11.7,746.8,98.3,934.4,226.4c18.9,12.6,36.1,20.7,37.9,18.9C5701.2,4367.6,5691.2,4346.9,5676.8,4323.4z M5870.7,4573.2
				c-22.5-63.1-163.3-156-332.8-219.2c-164.2-61.3-313-100.1-516.8-132.6c-143.4-22.5-367.1-39.7-367.1-28
				c0.9,2.7,14.4,16.2,31.6,28.9c24.4,18,49.6,26.2,114.5,34.3c372.5,49.6,831.6,188.5,1012.9,306.7c29.8,19.8,56.8,36.1,60.4,36.1
				C5877,4600.3,5875.2,4588.6,5870.7,4573.2z"/>
		</g>
		<g>
			<g>
				<path fill="#030104" d="M288.4,483.7l-30.3,3.3l-10.5,85.9c3.2-0.3,6.5-1.7,9.1-4.3l116.5-116.5c2.6-2.6,4.1-5.9,4.2-9.1
					l-85.8,10.5L288.4,483.7z"/>
				<path fill="#030104" d="M275,375.2l-1.7-0.7L167.9,479.8c-2.6,2.6-4.1,5.9-4.2,9.1l115.8-14.1l11.3-92.5l-0.5-0.2
					C284.7,380.9,279.5,378.6,275,375.2z"/>
				<polygon fill="#030104" points="166,497.4 239.7,571.2 250.3,487.8 				"/>
				<path fill="#030104" d="M318.5,377.7c-5.7,3.2-12.1,5.1-18.9,5.2l-7.2,62.7l83.5-10.6L318.5,377.7z"/>
			</g>
		</g>
	</g>
	<ellipse fill="none" stroke="#000000" stroke-width="6" stroke-miterlimit="10" cx="298.5" cy="342.4" rx="32.3" ry="32.7"/>
</g>
</svg>
