<?xml version="1.0" encoding="utf-8"?>
<!-- Generator: Adobe Illustrator 17.1.0, SVG Export Plug-In . SVG Version: 6.00 Build 0)  -->
<!DOCTYPE svg PUBLIC "-//W3C//DTD SVG 1.1//EN" "http://www.w3.org/Graphics/SVG/1.1/DTD/svg11.dtd">
<svg version="1.1" id="Слой_1" xmlns="http://www.w3.org/2000/svg" xmlns:xlink="http://www.w3.org/1999/xlink" x="0px" y="0px"
	 viewBox="0 0 876.9 211.4" enable-background="new 0 0 876.9 211.4" xml:space="preserve">
<g>
	<g transform="translate(0.000000,660.000000) scale(0.100000,-0.100000)">
		<path d="M8768,6586.9c-1.6,7-3.6,13.1-4,13.1c-1,0-17.1-6.6-35.8-14.6c-103.2-42.8-358.8-116.9-504.4-146.1
			c-41.8-8-62.5-9.6-105.8-7.6c-91.2,5.6-262-11.1-379.4-35.8c-186.5-39.3-367.8-123.5-492.3-228.7c-20.1-17.1-40.8-30.7-46.4-30.7
			c-25.7,0-48.8-37.3-44.4-70.5l2.6-20.1h-55l3.6,17.1c6,33.7-19.1,73.5-46.8,73.5c-5,0-23.7,12.6-41.8,28.3
			c-193,165.8-498.3,265-813.7,265.6c-46.8,0-92.2,0-100.8-0.6c-59.4-3-462,107.8-576.4,158.2c-32.3,14.6-29.3,14.1-33.3,2
			c-9.6-30.3,22.1-78.1,73.1-110.8c19.7-12.6,25.1-19.1,25.1-29.7c0-19.1,26.3-62,50.4-82.7c11.6-10.1,33.3-24.1,47.8-31.7
			c20.1-11.1,27.7-17.7,29.7-28.3c3.6-19.1,37.8-55,67-70.5c13.1-7.6,40.8-18.1,61-24.1c19.7-6,36.3-13.1,36.3-15.6
			c0-10.6,32.7-39.8,56.4-49.8c31.3-13.1,90.7-24.7,130.5-25.1c23.1,0,29.7-2,39.8-12.6c15.6-16.6,68-32.7,107.4-33.3
			c23.7-0.6,38.3-4,59-14.6c32.7-16.6,57.4-23.7,95.8-26.7c15.1-1.6,40.3-7,55.4-12.6c15.1-5.6,41.3-11.6,58-13.6
			c16.6-2,39.3-7.6,50.4-13.1c11.1-5,33.7-10.6,50.4-12.6c16.6-2,37.3-8,46.4-13.6c9.6-5.6,29.7-10.6,47.8-12.1
			c17.7-1,41.3-6.6,53-12.1c22.7-10.6,67-14.1,97.2-7c21.7,4.6,52.4,19.7,74.1,35.8c9.1,6.6,23.1,12.1,31.7,12.1h16.1l-25.1-28.3
			c-46.8-52.4-71.5-116.4-71.5-185.9c0-119.9,75.5-223.2,191.5-262.6c20.1-7,42.3-9.6,83.1-9.6c48.4,0,60.4,2,93.2,14.1
			c156.8,57.4,226.3,238.3,148.2,386.9c-10.1,18.7-29.7,45.8-43.4,60L7304,5985h17.7c10.6,0,23.7-5,34.7-13.1
			c38.8-29.7,94.7-44.4,140.1-36.8c14.6,2,30.7,7.6,35.3,11.1c4.6,4,23.1,8.6,41.8,10.1c19.1,1,43.4,7,56,13.1
			c12.1,5.6,26.7,10.6,33.3,10.6c16.1,0,56.4,10.6,68.5,18.1c5.6,3,24.1,7.6,41.3,9.1c17.1,2,46.8,8.6,65.5,15.1
			c18.7,6,44.4,11.6,57,12.6c32.3,1.6,59,9.1,88.2,25.1c19.7,10.6,32.7,14.1,58,14.6c42.3,1,83.7,13.1,106.8,31.7
			c15.1,12.1,23.7,14.6,45.4,14.6c83.7,0.6,166.3,32.3,180.3,69c3,7.6,13.1,13.1,33.7,19.1c68.5,19.7,126.9,62,135.1,97.2
			c2,10.1,9.6,17.7,26.3,26.3c55.4,29.3,94.2,73.1,100.8,113.4c2,13.1,8,20.7,29.7,35.3C8749.8,6516.9,8774,6553.6,8768,6586.9z
			 M8078.2,6377.8c-13.1-14.6-49.4-32.3-82.1-39.8c-28.7-6.6-111.4-7.6-144.1-1c-17.7,3.6-12.1,5,40.3,10.1
			c63.5,7,132.5,20.7,166.3,33.3C8086.2,6390.4,8089.2,6389.8,8078.2,6377.8z M7535.9,6210.5c-26.3,14.1-28.7,18.7-15.1,26.3
			c12.1,7,13.6,7,40.3-6.6c35.3-17.7,59-24.1,109.4-30.7l45.4-6l-20.1-5.6C7651.4,6174.8,7583.9,6184.3,7535.9,6210.5z M7605,6158.6
			l-16.1-8.6c-33.3-17.7-94.2-13.1-145.1,11.6l-24.1,11.6l14.6,12.1c8.6,6.6,17.7,10.1,22.1,8.6c4-2,22.1-9.1,40.3-15.6
			c17.7-6.6,49.4-14.1,70.5-16.1L7605,6158.6z M7637.7,6248.3l-42.8,20.7l20.1,9.1c11.1,5,21.1,8.6,22.7,8c1.6-0.6,14.1-7,27.7-14.6
			c41.3-21.7,80.7-30.7,133.1-30.7c46.4,0,47.4,0,35.8-8.6C7793.5,6201.5,7721.9,6207.5,7637.7,6248.3z M7751.1,6290.1
			c-45.8,17.1-47.4,18.7-30.3,25.7c8.6,3.6,16.1,6.6,17.1,7c1,0,18.1-6,37.8-13.1c46.4-17.1,125.9-21.7,173.3-10.6
			c30.7,7,31.3,7,23.1-2c-15.1-16.6-60.4-30.3-102.2-30.3C7826.2,6266.9,7797.9,6272.5,7751.1,6290.1z M5519,6550.1
			c-13.1,24.7-11.1,25.1,19.7,4c99.8-67,374.9-151.2,578.4-176.9c44.8-5.6,50.8-7.6,65-22.1l15.6-16.1l-47.4,2.6
			C5874.7,6354.1,5567.4,6455.9,5519,6550.1z M6732.3,6213.5c-51.8-29.3-133.1-40.8-170.3-24.7c-14.6,6-14.1,6.6,20.1,10.1
			c45.8,4.6,89.7,16.1,117.9,30.7c12.6,6.6,23.7,12.1,24.1,12.6c0.6,0,7-2.6,14.1-6C6754.9,6228.6,6754.5,6226.1,6732.3,6213.5z
			 M6771.1,6180.2c20.7,8,40.3,13.6,42.8,12.6c3-1.6,10.6-6,17.1-10.6c11.6-7.6,11.6-7.6-16.1-21.1c-49.8-25.7-122.9-29.3-152.2-7.6
			c-7.6,5.6-3.6,7,30.7,9.1C6720.2,6164.6,6745.4,6170.2,6771.1,6180.2z M6636.5,6253.9c-16.1-8.6-43.8-20.7-62-27.3
			c-56-19.7-138.1-14.1-153.2,10.1c-2,2.6,17.7,4.6,45.8,5c54.4,0,99.8,11.1,135.1,32.7c20.1,12.6,28.3,13.1,51.8,1
			C6665.8,6269.4,6665.3,6268.9,6636.5,6253.9z M6533.8,6299.2c-84.7-37.3-160.2-43.4-217.2-17.7c-24.1,11.1-48.8,29.3-32.7,24.1
			c55-17.1,142.1-15.6,197.5,3.6c33.3,11.1,50.8,12.1,67.5,3.6C6553.9,6310.3,6549.4,6306.3,6533.8,6299.2z M6413.4,6337.4
			c-9.6-2.6-42.3-4.6-73.1-4.6c-78.1-0.6-128.5,14.1-156.8,45.8c-9.6,11.1-9.6,11.1,0.6,7.6c5.6-2,28.3-9.1,50.4-15.6
			c22.1-6,61-14.1,85.7-17.1c25.1-3,52.4-6.6,60.4-7.6c8.6-1.6,23.1-2.6,32.7-3l17.7-1L6413.4,6337.4z M5615.2,6432.7
			c-3.6,10.6-2,10.1,24.7-6.6c15.6-10.1,42.8-24.7,61-32.7c115.4-52,278.1-83.7,454.5-89.2c74.5-2,103.2-4.6,107.4-9.6
			c7.6-9.1-3.6-11.1-86.1-14.6c-85.1-3.6-229.3,4.6-303.3,17.7C5730.6,6321.8,5633.8,6372.7,5615.2,6432.7z M5742.7,6299.2
			c-6.6,11.1-6,11.1,31.3-6.6c41.3-19.1,118.9-38.3,185.9-45.8c64.5-7,244.9-3,308.8,7.6c35.8,5.6,48.4,6,68,1l23.7-6.6l-36.8-8.6
			c-125.9-28.7-253-40.8-351.2-32.3C5855.5,6217.5,5767.9,6252.3,5742.7,6299.2z M6098.4,6140.9c-77.1,0-110.8,5-148.2,21.1
			c-25.1,10.6-56,36.3-33.3,27.7c53-20.7,161.2-27.3,258-15.1c64,7.6,158.2,27.7,199,42.3c14.6,5,27.3,9.6,28.3,9.6
			c0.6,0.6,7-3,14.1-8c16.1-10.6,14.1-12.1-55-34.3C6263.2,6152.1,6193.2,6140.5,6098.4,6140.9z M6157.9,6102.7
			c-14.6,5-27.7,11.1-28.7,12.6c-1,2,31.3,3.6,71.5,3.6c98.8,0,199,21.7,280.1,60c43.4,20.7,39.8,20.1,50.4,8.6
			c8.6-9.6,8.6-10.1-3-17.7c-28.3-18.7-101.8-48.8-147.6-61.5C6314.6,6090.6,6200.8,6088.1,6157.9,6102.7z M6393.2,6053.7
			c-40.3,0-63,2-74.5,7c-16.1,7.6-15.1,7.6,32.7,8c28.3,0.6,64.5,4,84.7,9.6c41.8,10.1,116.9,44.4,148.6,67.5
			c22.7,16.6,53,20.1,53,7c0-8.6-48.4-44.4-83.1-62C6500,6063.9,6456.7,6053.7,6393.2,6053.7z M6463.8,6029.6l-17.7,5l22.7,0.6
			c50.8,1.6,144.1,35.3,199.6,73.1c12.1,8,26.3,13.1,37.3,13.1l17.7-0.6l-19.7-16.6c-26.7-23.1-67-46.8-104.8-62.5
			C6563,6027,6493.9,6021,6463.8,6029.6z M6607.3,6001.3l-40.3,1.6l37.8,9.1c43.8,10.1,87.7,29.7,126.9,56.4
			c22.7,15.1,29.7,17.7,44.4,15.1c9.6-2,19.7-4.6,21.7-6c6.6-4-39.8-35.8-74.5-51.8C6677.9,6005.4,6651.7,5999.9,6607.3,6001.3z
			 M6793.3,5991.3c-27.3-14.1-78.7-22.7-108.8-18.7c-30.7,4.6-27.3,10.1,8.6,14.6c34.7,4,73.5,18.1,108.4,40.3
			c22.1,14.1,28.7,16.1,36.3,11.6c5-3.6,9.1-7.6,9.1-9.6C6846.7,6024.6,6817,6002.9,6793.3,5991.3z M6630,6320.3
			c-106.4,36.8-283.7,74.5-403.1,85.7c-44.8,4.6-72.1,13.1-30.3,10.1c15.1-1.6,53-3.6,83.1-5c286.3-14.6,563.8-115.4,732.6-265.6
			c15.1-13.1,32.7-24.1,38.8-24.1c22.1,0,43.8-31.7,38.3-56.4c-3-14.1-9.6-11.1-49.4,20.7C6915.2,6186.3,6758,6276,6630,6320.3z
			 M7362.3,5774.2c0-123.6-103.1-226.7-226.7-226.7c-0.3,0-0.6,0-0.9,0s-0.6,0-0.9,0c-2,0-3.9,0.1-5.9,0.2c-1.6,0-3.1,0-4.6,0.1
			c-5.6,0.3-11.2,0.7-16.6,1.5c-40.9,3.7-67,13.4-105.4,39.6c-37.8,25.1-69,68-84.1,113.9c-7.2,23-9.9,37-9.7,59.9
			c-0.2,3.9-0.3,7.7-0.3,11.7c0,12.8,1.1,25.4,3.2,37.7c1.2,9.5,3.1,17.3,6,25.7c27.9,93.5,115.8,163.4,217.4,163.4
			c0.3,0,0.6,0,0.9,0s0.6,0,0.9,0C7259.2,6000.9,7362.3,5897.8,7362.3,5774.2z M7261.4,6116.3c-90.7-69-82.1-63.5-87.7-55
			c-12.1,18.1,9.1,56.4,32.3,57.4c7,0.6,27.7,14.1,47.8,31.7c176.9,152.2,441.3,244.9,749.3,262.6c36.3,2.6,69,4.6,73.1,4.6
			c4,0.6,5-0.6,2.6-3c-3-2.6-37.8-8-78.1-13.1C7695.7,6364.7,7478.5,6281,7261.4,6116.3z M7603.5,5979.2
			c-10.1-10.1-84.1-7.6-114.4,3.6c-25.1,8.6-78.1,40.8-78.1,47.4c0,1.6,5,5.6,11.6,8.6c8.6,4,14.1,3.6,26.3-4
			c8.6-5,25.7-15.1,38.8-21.7c29.3-15.6,74.5-27.7,101.8-27.7C7605.5,5985.3,7608.6,5984.3,7603.5,5979.2z M7655.9,6000.9
			c-42.3-0.6-88.7,9.1-120.9,25.7c-28.7,14.6-73.5,44.8-73.5,49.8c0,3.6,11.6,6.6,34.7,9.1c4,0,19.1-7.6,33.7-17.7
			c38.3-25.1,84.1-45.8,127.9-57l37.8-9.6L7655.9,6000.9z M7799,6029.6c-30.3-8.6-99.2-2.6-135.1,12.1
			c-37.8,15.6-78.1,39.3-104.8,62.5l-19.7,16.6l17.1,0.6c11.1,0,28.3-7,53-22.1c61.5-38.3,132.5-62.5,184.5-64l22.7-0.6L7799,6029.6
			z M7944.7,6061.8c-26.7-11.1-97.8-13.1-139.1-4.6c-60.4,13.1-122.9,42.3-167.3,78.7c-33.3,27.3,0,36.3,37.8,10.1
			c72.1-49.4,152.2-76.1,232.7-77.1C7957.2,6068.4,7959.7,6067.9,7944.7,6061.8z M8030.8,6092.6c-85.1-4.6-176.9,15.6-259.4,57.4
			c-47.4,23.7-49.8,26.3-40.3,36.8c7.6,8,10.6,7.6,54.4-10.6c25.7-10.6,66-24.7,89.7-31.3c66.5-19.7,143.1-29.7,205.6-27.7
			c30.3,0.6,54,0,53-2C8127.6,6106.2,8078.2,6095.1,8030.8,6092.6z M8348.7,6184.8c-11.6-13.6-43.8-28.3-80.7-36.3
			c-33.7-7-161.2-10.1-196.5-4.6c-85.7,14.1-143.6,28.7-204,51.4l-34.7,13.1l11.6,9.6c6.6,5.6,15.1,8,19.7,6.6
			c4.6-2,21.7-7.6,38.3-12.6c48.4-15.1,151.2-34.3,219.2-40.8c89.2-8.6,170.8-1.6,224.2,18.7
			C8354.8,6193.4,8355.3,6192.9,8348.7,6184.8z M8511.5,6288.6c-15.1-20.1-53-43.8-89.7-56.4c-115.9-38.3-320.4-33.3-504.9,13.1
			c-13.6,3.6-13.6,3.6,7,10.1c17.7,5,30.3,4.6,73.1-2c79.1-12.1,292.3-11.6,358.8,1c55,10.1,113.4,27.7,142.6,42.8
			C8521.1,6308.7,8524.5,6306.7,8511.5,6288.6z M8637.5,6415.1c-54-87.1-223.7-134.1-485.7-134.1c-126.5,0-165.2,3.6-154.6,13.6
			c4.6,4.6,36.3,7.6,109.4,9.6c217.2,6.6,417.2,55,522,126.5c10.6,7,20.1,11.6,21.1,10.6C8651,6439.8,8645.5,6428.2,8637.5,6415.1z
			 M8745.8,6554.6c-12.6-35.3-91.2-87.1-185.9-122.5c-91.7-34.3-174.9-56-288.7-74.1c-80.1-12.6-205-22.1-205-15.6
			c0.6,1.6,8,9.1,17.7,16.1c13.6,10.1,27.7,14.6,64,19.1c208.2,27.7,464.6,105.4,565.8,171.3c16.6,11.1,31.7,20.1,33.7,20.1
			C8749.3,6569.7,8748.3,6563.2,8745.8,6554.6z"/>
	</g>
	<g>
		<g>
			<path d="M707.8,161.6l-17,1.9l-5.8,47.9c1.8-0.1,3.6-1,5.1-2.5l65.1-65.1c1.5-1.5,2.2-3.2,2.3-5.1l-47.9,5.8L707.8,161.6z"/>
			<path d="M700.3,100.9l-1-0.4l-58.9,58.9c-1.5,1.5-2.2,3.2-2.3,5.1l64.7-7.8l6.3-51.7l-0.2-0.1
				C705.6,104.2,702.7,102.8,700.3,100.9z"/>
			<polygon points="639.3,169.2 680.5,210.4 686.4,163.8 			"/>
			<path d="M724.5,102.4c-3.1,1.8-6.7,2.8-10.6,2.9l-4,35l46.7-5.9L724.5,102.4z"/>
		</g>
	</g>
</g>
<ellipse fill="none" stroke="#000000" stroke-width="6" stroke-miterlimit="10" cx="713.3" cy="82.6" rx="18" ry="18.2"/>
<g>
	<path d="M185.8,90.1c15.8-20.6,21.5-29.8,27.2-40.9c2.8-5.4,2.1-7.2,0.3-7.2c-2,0-4,2.2-5.1,3.5l-40.2,43.6l-25.3,33.9
		c-2.8,3.8-7,10.2-12.4,10.2c-7,0-10.4-13.2-12.2-18.4l35-44.2c17.5-31.5,14.5-34.9,11.7-34.9c-1.3,0-3.8,1.3-5.1,2
		C108,61.7,116,62,107.5,62c-2.7,0-4.8-2.2-4-6.1c1.7-9.1,3-18.2,4.4-19.8c1.6-2,0.6-1.7,15.4-12.2c0.9-0.7,3-2.3,4.1-2.3
		c0.9,0,2,0.7,2,1.7s-2.3,4-8.8,9.7l0.3,0.3l18.9-8.7c2-0.9,25.6-12.1,31.6-11.7c4,0.1,4.7,2.5,6.4,5.4l4,7c1.2,2.2,2,3.9,2,6.4
		c0,5.5-8.5,22.9-10.4,29.2l0.3,0.3l26.6-25.8c6.1-5.9,20.4-18.4,27.3-18.5c3.7-0.1,12.2,2.8,12.2,11.5c0,12.4-18.1,37.2-24.9,47.7
		l0.3,0.3c20.6-17.8,39.9-36,61.8-53.4c2.1-1.8,5.5-5.4,8.5-5.4c4.6,0,11.5,10.8,11.5,14.4c0,3.4-5.1,9.2-7.2,11.7L264,75.3
		c-7.7,9.4-19.2,25.3-19.2,38c0,3.4,1.8,8.2,5.8,8.2c4.7,0,17.8-7.6,40.3-29.5l0.7,6.4c-4,11.5-40,40-54.4,40
		c-11.1,0-14.7-10.6-14.7-20.2c0-20.1,21.2-45.3,33-60.4l-0.3-0.3c-28.5,24.1-37.7,31.6-64,65c-2.6,3.1-10.5,12.7-14.7,12.7
		c-6.5,0-8.8-12.1-8.8-16.9c0-4.7,4-9.7,6.7-13.2L185.8,90.1z"/>
	<path d="M349.7,106.2c-10.2,11.8-28.6,27.6-45.3,27.6c-12.2,0-17.9-10.8-18.2-21.9c-0.7-21.9,23.6-44.4,45.4-44.2
		c5.4,0,12.1,1.3,12.1,8c0,8.2-8.2,20.6-40.3,31.2l-0.3,3.7c-0.4,6.4,5,8.5,10.4,8.5c11.8,0,25.9-12.2,34.9-19.2L349.7,106.2z
		 M328.9,79.2c0-1.1-0.9-2.2-2-1.8c-8.4,2.1-18.1,10.2-22.6,21.2C318.9,93.7,329,82,328.9,79.2z"/>
	<path d="M359.1,94.8c-5.8,9.3-12.8,13.5-20.1,20.8l-0.7-7.4c4.4-3.5,7.8-7.7,11.1-12.2c-3.5-0.3-4.5-1.7-4.5-5.1
		c0-12.1,17.1-24.1,21.1-24.1c1.7,0,3,1.3,3,2.8c0,1.7-0.4,3.2-1.1,4.7c15.8-2.1,24.9-4.1,26.6-2.1c2.6,3.1,3.7,5.8,4,8.8
		c0,5.1-3.1,7.7-7,10.8c-4.8,4.2-13.1,12.4-13.1,19.1c0,2.7,2.7,4.7,5.1,4.7c7.3,0,17.8-10.9,23.2-15.1l1.1,6.1
		c-6.4,7.3-25.6,25.8-35.2,25.8c-7,0-11.4-6.5-11.4-12.8c0-11.4,8.7-20.2,15.4-28.3l-0.3-0.3L359.1,94.8z"/>
	<path d="M424.1,99.7c-3.7,2.7-6.7,5.3-6.7,9.8c0,3.9,4,9.1,12.7,9.1c12.7,0,27.3-11.7,37-19.2l2,6.5
		c-10.2,10.9-28.9,27.5-44.9,27.5c-12.8,0-19.1-12.1-19.1-24.5c0-14.1,5-19.3,16-27.5c7.5-5.7,23.6-14.7,33-14.7
		c5.1,0,7.5,2.7,7.5,7.7c0,9.3-13.2,22.1-17.8,22.1c-3.8,0-5.5-4.2-5.7-7.4L424.1,99.7z"/>
	<path d="M513.4,86.6c3.5-3.1,19.9-19.1,24.1-19.1c1.3,0,3.1,0.4,3.9,9.2c0.3,4-4.2,7.8-6.9,10.2c-5.4,4.8-17.2,18.1-17.2,25.6
		c0,2.7,1.6,3.7,4.2,3.7c6.4,0,20.8-11.7,25.8-15.8l1,7.3c-8.5,8.2-26.3,27.5-38.7,27.5c-6.1,0-9.8-5.1-9.8-11.1
		c0-5,1.8-9.7,3.5-14.1l-0.3-0.3c-6.5,5.7-17.8,20.8-26.9,20.8c-8.2,0-12.7-9.4-12.7-16.5c0-16.2,12.5-33,23.2-40
		c2.3-1.6,4.5-1.8,7.4-1.8c2.3,0,10.9-1.6,10.2,3.5c-0.3,2.7-4.8,7.4-6.7,8.8c-5.3,5.8-6.1,7.4-12.7,12.1c-5.3,3.7-9.3,7.4-9.3,14.4
		c0,0.9,0.1,2.6,1.3,2.6c3,0,12.2-4.8,20.1-11.8L513.4,86.6z"/>
	<path d="M557.6,94.8c-5.9,9.3-12.8,13.5-20.1,20.8l-0.7-7.4c4.4-3.5,7.8-7.7,11.1-12.2c-3.5-0.3-4.5-1.7-4.5-5.1
		c0-12.1,17.1-24.1,21.1-24.1c1.7,0,3,1.3,3,2.8c0,1.7-0.6,3.2-1.2,4.7c15.8-2.1,24.9-4.1,26.6-2.1c2.6,3.1,3.7,5.8,4,8.8
		c0,5.1-3.1,7.7-7,10.8c-4.8,4.2-13.1,12.4-13.1,19.1c0,2.7,2.7,4.7,5.1,4.7c7.3,0,17.8-10.9,23.2-15.1l1.1,6.1
		c-6.4,7.3-25.6,25.8-35.2,25.8c-7,0-11.4-6.5-11.4-12.8c0-11.4,8.7-20.2,15.4-28.3l-0.3-0.3L557.6,94.8z"/>
	<path d="M631.7,159c-1.7,1.9-6.4,8.4-9.1,8.4c-3.5,0-5-8.2-5-11.1c0-2.7,3.2-7.8,4.6-10.1l22.5-37.9l-0.3-0.3
		c-13.7,11.5-26,20.6-28,20.4c-4.7-0.3-12.7-7.4-13.2-19.8c-0.7-20.1,27.9-41.3,32.6-41.6c2.6,0,7.2,5.4,7.2,7.7
		c0,6.4-18.9,23.8-24.5,28.2c-2,2.8-3,6.1-3.1,9.7c8.9-1,16.9-8.2,23.9-14.7c17.2-15.9,27.9-27.5,31.2-27.9c2.8-0.6,4.5,6,4.5,8.4
		c0,4.4-4.5,11.2-6.9,14.7l-24.8,36.9l0.3,0.3l37.4-33.1l1.3,6.1L631.7,159z"/>
</g>
</svg>
